<?xml version="1.0" encoding="UTF-8"?>
<svg width="1200pt" height="1200pt" version="1.1" viewBox="0 0 1200 1200" xmlns="http://www.w3.org/2000/svg">
 <path fill="#ffffff" d="m444 168c-12 20.398-24 40.801-34.801 62.398-10.801 20.398-20.398 42-30 63.602 1.1992 0 2.3984 1.1992 3.6016 1.1992 6-9.6016 12-19.199 18-28.801 40.801-61.199 87.602-117.6 148.8-160.8 32.398-22.801 67.199-39.602 105.6-45.602 60-9.6016 110.4 7.1992 154.8 48 60 55.199 93.602 124.8 114 202.8 19.199 74.398 24 148.8 20.398 225.6-9.6016 171.6-66 327.6-172.8 463.2-33.602 42-72 80.398-118.8 106.8-86.398 49.199-175.2 42-252-24-67.199-57.602-111.6-130.8-132-217.2-7.1992-31.199-8.3984-64.801-10.801-97.199-6-80.398-2.3984-159.6 13.199-238.8 24-120 67.199-232.8 141.6-331.2 8.3984-12 19.199-22.801 28.801-33.602 0 2.4023 1.1992 3.6016 2.3984 3.6016zm348 420c-1.1992 0-2.3984-1.1992-2.3984-1.1992 0-2.3984 1.1992-4.8008 1.1992-7.1992 16.801-74.398 25.199-150 22.801-225.6-1.1992-39.602-8.3984-79.199-24-116.4-14.398-32.398-36-58.801-69.602-73.199-48-20.398-93.602-12-135.6 15.602-48 31.199-82.801 75.602-114 123.6-34.801 55.199-60 114-82.801 175.2-36 96-60 194.4-55.199 298.8 3.6016 70.801 20.398 138 56.398 200.4 50.398 88.801 138 115.2 217.2 90 2.3984-1.1992 6-2.3984 8.3984-3.6016-3.6016-2.3984-6-2.3984-9.6016-2.3984-69.602-6-123.6-36-163.2-94.801-27.602-42-40.801-88.801-48-138 0-1.1992 0-2.3984 1.1992-6 8.3984 18 15.602 36 25.199 51.602 21.602 40.801 46.801 78 85.199 104.4 32.398 22.801 67.199 32.398 105.6 16.801 15.602-6 30-14.398 43.199-25.199 58.801-46.801 99.602-108 134.4-172.8 21.602-39.602 36-81.602 48-124.8 27.602-93.602 38.398-189.6 24-286.8-3.6016-24-8.3984-46.801-13.199-70.801h-3.6016c2.4102 96-5.9883 187.2-51.59 272.4z"/>
</svg>
